<svg width="217" height="217" viewBox="0 0 217 217" fill="none" xmlns="http://www.w3.org/2000/svg">
<path fill-rule="evenodd" clip-rule="evenodd" d="M52.2195 0.632315C44.1185 1.72931 33.0275 5.65231 26.8895 9.59031C19.1535 14.5543 10.0105 25.0033 6.21646 33.2143C0.139458 46.3673 -0.277543 51.7973 0.100457 112.829C0.396457 160.582 0.644457 167.81 2.15646 172.938C4.77746 181.823 8.77846 189.252 14.3295 195.543C23.9285 206.419 32.5545 211.523 46.5785 214.624C54.6505 216.409 59.6165 216.567 108.003 216.587C166.67 216.611 169.982 216.324 183.714 210.019C193.359 205.591 205.069 194.132 209.679 184.609C216.39 170.749 216.36 171.086 216.36 109.109C216.36 47.0153 216.254 45.8003 209.648 31.8153C205.414 22.8533 193.942 11.3363 184.807 6.87731C171.391 0.327313 170.948 0.286315 111.86 0.0313149C82.4355 -0.0956851 55.5975 0.175315 52.2195 0.632315ZM163.144 3.62931C188.08 7.23531 205.562 22.5703 211.573 46.1093C213.183 52.4143 213.36 58.5673 213.36 108.109C213.36 158.569 213.205 163.728 211.484 170.609C206.087 192.179 189.503 207.769 167.318 212.126C160.446 213.476 151.348 213.657 104.818 213.369C45.4315 213.002 45.7155 213.027 33.2625 206.929C22.8525 201.832 11.7685 189.71 7.48646 178.74C3.29746 168.008 2.86046 161.38 2.86246 108.609C2.86346 51.6113 3.29546 46.6523 9.35446 34.0553C13.7775 24.8583 23.7245 14.4613 32.3605 10.0073C38.3385 6.92331 48.2095 3.97731 54.8605 3.29031C63.1225 2.43731 156.932 2.73131 163.144 3.62931ZM55.8125 36.3863C46.8985 39.7633 41.8565 44.1743 37.2615 52.6163C34.2955 58.0653 34.5455 73.5403 37.6975 79.6093C42.9405 89.7023 50.5885 94.9983 62.4075 96.7183C66.7815 97.3553 70.5055 97.9983 70.6835 98.1493C71.0195 98.4333 64.6135 107.934 62.2275 110.688C60.0515 113.2 60.5515 113.609 65.8015 113.609H70.7425L80.5515 99.6543C94.8475 79.3173 96.3605 76.0583 96.3605 65.6093C96.3605 55.7793 94.0585 49.8073 87.8955 43.6443C79.9205 35.6693 66.0095 32.5223 55.8125 36.3863ZM77.8345 46.4123C80.4715 48.0333 83.5495 51.1713 85.3345 54.0573C87.8995 58.2073 88.3605 59.9533 88.3605 65.5313C88.3605 73.3233 86.4025 78.0483 81.3275 82.5043C71.4605 91.1673 57.3345 90.6083 49.0995 81.2293C42.3055 73.4903 41.0235 64.6883 45.4095 55.8873C51.5605 43.5433 66.2055 39.2643 77.8345 46.4123ZM59.5835 120.648C50.8175 122.121 42.3225 128.705 37.6975 137.609C35.7175 141.422 35.3655 143.56 35.3955 151.609C35.4365 162.893 36.9965 166.656 44.5665 173.737C60.1265 188.292 84.2425 184.04 93.8605 165.046C95.9765 160.868 96.3605 158.726 96.3605 151.109C96.3605 143.632 95.9655 141.348 94.0265 137.609C87.3115 124.662 74.1785 118.195 59.5835 120.648ZM101.769 122.109C101.719 122.384 101.637 124.072 101.586 125.859L101.494 129.109L117.177 129.384C125.803 129.536 132.86 129.882 132.86 130.155C132.86 130.427 125.865 140.646 117.316 152.863C105.67 169.507 101.846 175.708 102.066 177.593L102.36 180.109L126.61 180.377L150.86 180.645V176.627V172.609H132.86C122.96 172.609 114.86 172.224 114.86 171.753C114.86 171.282 118.478 165.77 122.901 159.503C127.323 153.236 132.611 145.722 134.651 142.805C136.691 139.887 139.757 135.612 141.464 133.305C145.615 127.693 146.319 125.21 144.323 123.214C142.953 121.845 139.71 121.609 122.289 121.609C111.053 121.609 101.819 121.834 101.769 122.109ZM75.3605 130.509C95.3005 139.76 92.0565 168.747 70.5425 173.568C52.8925 177.524 37.5345 158.99 44.7495 142.442C46.9675 137.355 51.9405 132.329 56.8605 130.201C61.7185 128.1 70.4825 128.246 75.3605 130.509ZM156.86 168.609C156.86 169.942 157.527 170.609 158.86 170.609C160.655 170.609 160.86 171.276 160.86 177.109C160.86 182.942 161.065 183.609 162.86 183.609C164.655 183.609 164.86 182.942 164.86 177.109C164.86 171.276 165.065 170.609 166.86 170.609C168.193 170.609 168.86 169.942 168.86 168.609C168.86 166.831 168.193 166.609 162.86 166.609C157.527 166.609 156.86 166.831 156.86 168.609ZM171.305 167.891C171.006 168.67 170.896 172.408 171.061 176.198C171.305 181.823 171.681 183.15 173.11 183.422C174.524 183.692 174.868 183.022 174.904 179.932L174.948 176.109L176.97 179.941C178.356 182.567 179.468 183.59 180.508 183.191C181.341 182.871 182.212 182.609 182.442 182.609C182.672 182.609 182.86 181.736 182.86 180.668C182.86 179.6 183.31 178.449 183.86 178.109C184.443 177.748 184.86 178.765 184.86 180.55C184.86 182.942 185.296 183.609 186.86 183.609C188.703 183.609 188.86 182.942 188.86 175.109C188.86 166.826 188.799 166.609 186.482 166.609C183.864 166.609 182.265 168.091 181.718 171.026C181.127 174.193 179.344 173.85 178.321 170.372C177.578 167.848 176.736 167.037 174.604 166.792C172.913 166.597 171.639 167.022 171.305 167.891Z" fill="black"/>
</svg>
